<?xml version="1.0" encoding="utf-8"?>
<svg viewBox="135.6171 119.6329 20.6582 30.3805" xmlns="http://www.w3.org/2000/svg">
  <path d="M 16.994 -13.59 L 15.859 -13.59 Q 15.736 -13.59 15.545 -13.843 Q 15.354 -14.096 15.101 -14.492 Q 14.848 -14.889 14.52 -15.374 Q 14.191 -15.859 13.747 -16.338 Q 13.303 -16.816 12.804 -17.213 Q 12.305 -17.609 11.628 -17.862 Q 10.951 -18.115 10.227 -18.115 Q 8.955 -18.115 7.875 -17.657 Q 6.795 -17.199 6.043 -16.427 Q 5.291 -15.654 4.751 -14.622 Q 4.211 -13.59 3.958 -12.441 Q 3.705 -11.293 3.705 -10.09 Q 3.705 -8.941 4.013 -7.854 Q 4.32 -6.768 4.956 -5.797 Q 5.592 -4.826 6.487 -4.095 Q 7.383 -3.363 8.654 -2.933 Q 9.926 -2.502 11.416 -2.502 Q 14.602 -2.502 17.295 -4.512 Q 17.828 -3.801 17.828 -3.117 Q 17.828 -2.133 16.769 -1.306 Q 15.709 -0.479 14.164 -0.055 Q 12.619 0.369 11.047 0.369 Q 8.941 0.369 7.171 -0.219 Q 5.4 -0.807 4.17 -1.805 Q 2.939 -2.803 2.071 -4.136 Q 1.203 -5.469 0.8 -6.959 Q 0.396 -8.449 0.396 -10.035 Q 0.396 -12.182 1.094 -14.123 Q 1.791 -16.064 3.021 -17.514 Q 4.252 -18.963 6.07 -19.817 Q 7.889 -20.672 9.994 -20.672 Q 11.334 -20.672 12.708 -20.077 Q 14.082 -19.482 14.93 -18.32 Q 14.93 -20.371 15.463 -20.371 L 16.994 -20.371 Q 17.65 -20.371 17.65 -18.949 L 17.65 -15.299 Q 17.65 -14.52 17.575 -14.157 Q 17.5 -13.795 17.384 -13.706 Q 17.268 -13.617 16.994 -13.59 Z" transform="matrix(0.61326, 0, 0, 0.613262, 135.617067, 143.054995)" style="fill: rgb(255, 255, 255); stroke: rgb(0, 0, 0); stroke-linecap: round; stroke-linejoin: bevel; stroke-width: 1.63063px;"/>
  <path d="M 8.203 -1.982 Q 8.859 -1.982 9.509 -2.126 Q 10.158 -2.27 10.773 -2.577 Q 11.389 -2.885 11.86 -3.322 Q 12.332 -3.76 12.619 -4.396 Q 12.906 -5.031 12.906 -5.783 Q 12.906 -6.658 12.681 -7.328 Q 12.455 -7.998 11.997 -8.422 Q 11.539 -8.846 11.013 -9.119 Q 10.486 -9.393 9.728 -9.522 Q 8.969 -9.652 8.319 -9.693 Q 7.67 -9.734 6.795 -9.734 Q 6.357 -9.734 5.544 -9.7 Q 4.73 -9.666 4.375 -9.666 Q 4.197 -9.762 4.197 -11.033 Q 4.197 -12.018 4.539 -12.332 Q 4.854 -12.305 6.918 -12.305 Q 9.064 -12.305 10.22 -13.262 Q 11.375 -14.219 11.375 -15.518 Q 11.375 -16.693 10.432 -17.562 Q 9.488 -18.43 7.889 -18.43 Q 7.191 -18.43 6.583 -18.32 Q 5.975 -18.211 5.346 -17.931 Q 4.717 -17.65 4.238 -17.213 Q 3.76 -16.775 3.391 -16.058 Q 3.021 -15.34 2.857 -14.41 Q 2.857 -14.355 2.598 -14.355 Q 2.105 -14.355 1.285 -14.506 Q 0.465 -14.656 0.465 -14.766 Q 0.52 -15.285 0.602 -15.805 Q 0.684 -16.324 0.745 -16.687 Q 0.807 -17.049 0.923 -17.527 Q 1.039 -18.006 1.094 -18.218 Q 1.148 -18.43 1.271 -18.901 Q 1.395 -19.373 1.422 -19.482 L 1.477 -19.646 Q 4.813 -20.426 7.861 -20.426 Q 9.311 -20.426 10.493 -20.146 Q 11.676 -19.865 12.448 -19.4 Q 13.221 -18.936 13.747 -18.3 Q 14.273 -17.664 14.499 -16.98 Q 14.725 -16.297 14.725 -15.572 Q 14.725 -14.137 13.672 -12.934 Q 12.619 -11.73 10.938 -11.348 Q 13.357 -11.02 14.854 -9.502 Q 16.352 -7.984 16.352 -5.947 Q 16.352 -3.883 15.319 -2.434 Q 14.287 -0.984 12.571 -0.308 Q 10.855 0.369 8.627 0.369 Q 5.4 0.369 1.832 -0.41 L 1.777 -0.574 Q 1.75 -0.684 1.627 -1.155 Q 1.504 -1.627 1.449 -1.839 Q 1.395 -2.051 1.278 -2.529 Q 1.162 -3.008 1.101 -3.37 Q 1.039 -3.732 0.957 -4.252 Q 0.875 -4.771 0.82 -5.291 Q 0.82 -5.4 1.641 -5.551 Q 2.461 -5.701 2.953 -5.701 Q 3.213 -5.701 3.213 -5.646 Q 3.486 -4.416 4.266 -3.568 Q 5.045 -2.721 6.043 -2.352 Q 7.041 -1.982 8.203 -1.982 Z" transform="matrix(0.485978, 0, 0, 0.490272, 147.615618, 133.610705)" style="fill: rgb(255, 255, 255); stroke: rgb(0, 0, 0); stroke-linecap: round; stroke-linejoin: bevel; stroke-width: 1.63063px;"/>
</svg>